# xmcd CD database file
#
# Track frame offsets:
#	150
#	12126
#	23866
#	38216
#	51856
#	66086
#	78496
#	91236
#	104238
#	117373
#	129943
#	142788
#	156296
#	167776
#	181026
#	192476
#	205181
#	217106
#	229136
#	240978
#	254636
#	267051
#	279511
#	292203
#	302505
#
# Disc length: 4188 seconds
#
# Revision: 0
# Processed by: cddbd v1.5.2PL0 Copyright (c) Steve Scherf et al.
# Submitted via: CDex 1.70beta2
#
DISCID=68105a19
DTITLE=John Kirby - Jazz Roads CD138 - Swing - John Kirby Vol.1 (1938-39)
DYEAR=2006
DGENRE=Jazz
TTITLE0=John Kirby And His Onyx Club Boys - Rehearsin' For A Nervous Breakdown
TTITLE1=John Kirby And His Onyx Club Boys - From A Flat To C
TTITLE2=John Kirby And His Onyx Club Boys - Pastel Blue (Blue Dilemma)
TTITLE3=John Kirby And His Onyx Club Boys - Undecided
TTITLE4=John Kirby And His Onyx Club Boys - By The Waters Of The Minnetonka
TTITLE5=John Kirby And His Orchestra - It Feels Good
TTITLE6=John Kirby And His Orchestra - Effervescent Blues
TTITLE7=John Kirby And His Orchestra - The Turf
TTITLE8=John Kirby And His Orchestra - Dawn On The Desert
TTITLE9=John Kirby And His Orchestra - Anitra's Dance
TTITLE10=John Kirby And His Orchestra - Sweet Georgia Brown
TTITLE11=John Kirby And His Orchestra - Drink To Me With Thine Eyes
TTITLE12=John Kirby And His Orchestra - Minute Waltz
TTITLE13=John Kirby And His Orchestra - Front And Center
TTITLE14=John Kirby And His Orchestra - Royal Garden Blues
TTITLE15=John Kirby And His Orchestra - Opus 5
TTITLE16=John Kirby And His Orchestra - Impromptu
TTITLE17=John Kirby And His Orchestra - Blues Skies
TTITLE18=John Kirby And His Orchestra - Rose Room
TTITLE19=John Kirby And His Orchestra - I May Be Wrong (But I Think You're Wonderful)
TTITLE20=John Kirby And His Orchestra - Little Brown Jug
TTITLE21=John Kirby And His Orchestra - Nocturne
TTITLE22=John Kirby And His Orchestra - One Alone
TTITLE23=John Kirby And His Orchestra - Humoresque
TTITLE24=John Kirby And His Orchestra - Serenade
EXTD=YEAR: 2006
EXTT0=
EXTT1=
EXTT2=
EXTT3=
EXTT4=
EXTT5=
EXTT6=
EXTT7=
EXTT8=
EXTT9=
EXTT10=
EXTT11=
EXTT12=
EXTT13=
EXTT14=
EXTT15=
EXTT16=
EXTT17=
EXTT18=
EXTT19=
EXTT20=
EXTT21=
EXTT22=
EXTT23=
EXTT24=
PLAYORDER=
